<?xml version="1.0" encoding="utf-8"?>
<svg xmlns="http://www.w3.org/2000/svg"
	xmlns:xlink="http://www.w3.org/1999/xlink"
	width="24px" height="13px" viewBox="0 0 24 13">
<path fillRule="evenodd" d="M 1.41 13.41C 1.41 13.41-0 12-0 12-0 12 12-0 12-0 12-0 13.41 1.41 13.41 1.41 13.41 1.41 1.41 13.41 1.41 13.41M 10.59 1.41C 10.59 1.41 12-0 12-0 12-0 24 12 24 12 24 12 22.59 13.41 22.59 13.41 22.59 13.41 10.59 1.41 10.59 1.41M 13.41 1.41C 13.41 1.41 12-0 12-0 12-0 10.59 1.41 10.59 1.41 10.59 1.41 12-0 12-0 12-0 13.41 1.41 13.41 1.41 13.41 1.41 13.41 1.41 13.41 1.41Z" fill="rgb(255,255,255)"/></svg>