<?xml version="1.0" encoding="utf-8"?>
<svg xmlns="http://www.w3.org/2000/svg"
	xmlns:xlink="http://www.w3.org/1999/xlink"
	width="12px" height="13px" viewBox="0 0 12 13">
<path fillRule="evenodd" d="M 6 2.36C 5.88 2.36 5.78 2.31 5.7 2.23 5.61 2.14 5.57 2.04 5.57 1.93 5.57 1.81 5.61 1.71 5.7 1.63 5.78 1.54 5.88 1.5 6 1.5 6.12 1.5 6.22 1.54 6.3 1.63 6.39 1.71 6.43 1.81 6.43 1.93 6.43 2.04 6.39 2.14 6.3 2.23 6.22 2.31 6.12 2.36 6 2.36ZM 11.94 7.99C 11.9 7.95 11.85 7.93 11.79 7.93 11.79 7.93 9.43 7.93 9.43 7.93 9.33 7.93 9.26 7.97 9.23 8.06 9.19 8.15 9.21 8.23 9.27 8.3 9.27 8.3 9.94 8.97 9.94 8.97 9.64 9.37 9.22 9.72 8.68 9.99 8.13 10.27 7.52 10.46 6.86 10.55 6.86 10.55 6.86 6.21 6.86 6.21 6.86 6.21 8.14 6.21 8.14 6.21 8.26 6.21 8.36 6.17 8.44 6.09 8.53 6 8.57 5.9 8.57 5.79 8.57 5.79 8.57 4.93 8.57 4.93 8.57 4.81 8.53 4.71 8.44 4.63 8.36 4.54 8.26 4.5 8.14 4.5 8.14 4.5 6.86 4.5 6.86 4.5 6.86 4.5 6.86 3.41 6.86 3.41 7.12 3.26 7.32 3.05 7.48 2.79 7.64 2.53 7.71 2.24 7.71 1.93 7.71 1.46 7.55 1.05 7.21 0.72 6.88 0.38 6.47 0.21 6 0.21 5.53 0.21 5.12 0.38 4.79 0.72 4.45 1.05 4.29 1.46 4.29 1.93 4.29 2.24 4.36 2.53 4.52 2.79 4.68 3.05 4.88 3.26 5.14 3.41 5.14 3.41 5.14 4.5 5.14 4.5 5.14 4.5 3.86 4.5 3.86 4.5 3.74 4.5 3.64 4.54 3.56 4.63 3.47 4.71 3.43 4.81 3.43 4.93 3.43 4.93 3.43 5.79 3.43 5.79 3.43 5.9 3.47 6 3.56 6.09 3.64 6.17 3.74 6.21 3.86 6.21 3.86 6.21 5.14 6.21 5.14 6.21 5.14 6.21 5.14 10.55 5.14 10.55 4.48 10.46 3.87 10.27 3.32 9.99 2.78 9.72 2.35 9.37 2.06 8.97 2.06 8.97 2.73 8.3 2.73 8.3 2.79 8.23 2.81 8.15 2.77 8.06 2.74 7.97 2.67 7.93 2.57 7.93 2.57 7.93 0.21 7.93 0.21 7.93 0.15 7.93 0.1 7.95 0.06 7.99 0.02 8.03-0 8.08-0 8.14-0 8.14-0 10.5-0 10.5-0 10.6 0.04 10.66 0.13 10.7 0.17 10.71 0.2 10.71 0.21 10.71 0.28 10.71 0.33 10.69 0.37 10.65 0.37 10.65 0.99 10.03 0.99 10.03 1.52 10.67 2.23 11.17 3.12 11.55 4.01 11.92 4.97 12.11 6 12.11 7.03 12.11 7.99 11.92 8.88 11.55 9.77 11.17 10.48 10.67 11.01 10.03 11.01 10.03 11.63 10.65 11.63 10.65 11.68 10.69 11.73 10.71 11.79 10.71 11.8 10.71 11.83 10.71 11.87 10.7 11.96 10.66 12 10.6 12 10.5 12 10.5 12 8.14 12 8.14 12 8.08 11.98 8.03 11.94 7.99Z" fill="rgb(187,147,81)"/></svg>