<?xml version="1.0" encoding="utf-8"?>
<svg xmlns="http://www.w3.org/2000/svg"
	xmlns:xlink="http://www.w3.org/1999/xlink"
	width="11px" height="9px" viewBox="0 0 11 9">
<path fillRule="evenodd" d="M 10.39 3.46C 9.04 4.41 8.02 5.14 7.33 5.67 7.1 5.85 6.91 5.99 6.76 6.09 6.62 6.19 6.42 6.29 6.18 6.4 5.94 6.5 5.71 6.55 5.51 6.55 5.51 6.55 5.5 6.55 5.5 6.55 5.5 6.55 5.49 6.55 5.49 6.55 5.28 6.55 5.06 6.5 4.82 6.4 4.58 6.29 4.38 6.19 4.24 6.09 4.09 5.99 3.9 5.85 3.67 5.67 3.12 5.25 2.1 4.51 0.62 3.46 0.39 3.3 0.18 3.11-0 2.9-0 2.9-0 7.99-0 7.99-0 8.27 0.1 8.51 0.29 8.71 0.48 8.91 0.71 9.01 0.98 9.01 0.98 9.01 10.02 9.01 10.02 9.01 10.29 9.01 10.52 8.91 10.71 8.71 10.9 8.51 11 8.27 11 7.99 11 7.99 11 2.9 11 2.9 10.82 3.11 10.62 3.29 10.39 3.46 10.39 3.46 10.39 3.46 10.39 3.46ZM 10.71 0.29C 10.51 0.09 10.28-0.01 10.02-0.01 10.02-0.01 0.98-0.01 0.98-0.01 0.67-0.01 0.42 0.1 0.25 0.32 0.08 0.55-0 0.82-0 1.16-0 1.43 0.11 1.72 0.34 2.03 0.56 2.35 0.8 2.59 1.06 2.77 1.19 2.87 1.61 3.18 2.31 3.68 3.01 4.19 3.55 4.58 3.92 4.85 3.96 4.88 4.05 4.95 4.18 5.05 4.32 5.15 4.43 5.23 4.51 5.29 4.6 5.36 4.71 5.42 4.83 5.5 4.96 5.58 5.08 5.64 5.19 5.67 5.3 5.71 5.4 5.73 5.49 5.73 5.49 5.73 5.5 5.73 5.5 5.73 5.5 5.73 5.51 5.73 5.51 5.73 5.6 5.73 5.7 5.71 5.81 5.67 5.92 5.64 6.04 5.58 6.17 5.5 6.29 5.42 6.4 5.36 6.48 5.29 6.57 5.23 6.68 5.15 6.82 5.05 6.95 4.95 7.04 4.88 7.08 4.85 7.45 4.58 8.41 3.89 9.95 2.77 10.25 2.55 10.5 2.29 10.7 1.98 10.9 1.68 11 1.35 11 1.02 11 0.73 10.9 0.49 10.71 0.29Z" fill="rgb(255,255,255)"/></svg>