<?xml version="1.0" encoding="utf-8"?>
<svg xmlns="http://www.w3.org/2000/svg"
	xmlns:xlink="http://www.w3.org/1999/xlink"
	width="11px" height="11px" viewBox="0 0 11 11">
<path fillRule="evenodd" d="M 2.43 0.07C 1.9 0.07 1.44 0.26 1.07 0.64 0.69 1.01 0.5 1.47 0.5 2 0.5 2 0.5 8.43 0.5 8.43 0.5 8.96 0.69 9.41 1.07 9.79 1.44 10.17 1.9 10.36 2.43 10.36 2.43 10.36 5.99 10.36 5.99 10.36 5.99 10.36 5.99 6.37 5.99 6.37 5.99 6.37 4.65 6.37 4.65 6.37 4.65 6.37 4.65 4.82 4.65 4.82 4.65 4.82 5.99 4.82 5.99 4.82 5.99 4.82 5.99 3.67 5.99 3.67 5.99 3.02 6.17 2.52 6.54 2.16 6.9 1.8 7.39 1.62 7.99 1.62 8.51 1.62 8.9 1.64 9.19 1.68 9.19 1.68 9.19 3.07 9.19 3.07 9.19 3.07 8.37 3.08 8.37 3.08 8.06 3.08 7.86 3.14 7.76 3.27 7.65 3.39 7.6 3.58 7.6 3.83 7.6 3.83 7.6 4.82 7.6 4.82 7.6 4.82 9.13 4.82 9.13 4.82 9.13 4.82 8.93 6.37 8.93 6.37 8.93 6.37 7.6 6.37 7.6 6.37 7.6 6.37 7.6 10.36 7.6 10.36 7.6 10.36 8.86 10.36 8.86 10.36 9.39 10.36 9.84 10.17 10.22 9.79 10.6 9.41 10.79 8.96 10.79 8.43 10.79 8.43 10.79 2 10.79 2 10.79 1.47 10.6 1.01 10.22 0.64 9.84 0.26 9.39 0.07 8.86 0.07 8.86 0.07 2.43 0.07 2.43 0.07Z" fill="rgb(255,255,255)"/></svg>