<?xml version="1.0" encoding="utf-8"?>
<svg xmlns="http://www.w3.org/2000/svg"
	xmlns:xlink="http://www.w3.org/1999/xlink"
	width="11px" height="11px" viewBox="0 0 11 11">
<path fillRule="evenodd" d="M 1.19 2.63C 0.73 3.42 0.5 4.28 0.5 5.21 0.5 6.15 0.73 7.01 1.19 7.8 1.65 8.58 2.27 9.21 3.06 9.67 3.85 10.13 4.71 10.36 5.64 10.36 6.58 10.36 7.44 10.13 8.22 9.67 9.01 9.21 9.64 8.58 10.1 7.8 10.56 7.01 10.79 6.15 10.79 5.21 10.79 4.28 10.56 3.42 10.1 2.63 9.64 1.84 9.01 1.22 8.22 0.76 7.44 0.3 6.58 0.07 5.64 0.07 4.71 0.07 3.85 0.3 3.06 0.76 2.27 1.22 1.65 1.84 1.19 2.63ZM 7.77 3.48C 7.86 3.51 7.88 3.54 7.81 3.59 7.8 3.6 7.78 3.6 7.74 3.6 7.7 3.59 7.68 3.6 7.67 3.6 7.71 3.61 7.74 3.62 7.77 3.64 7.79 3.65 7.8 3.67 7.79 3.7 7.86 3.74 7.87 3.79 7.83 3.83 7.77 3.89 7.7 3.92 7.62 3.91 7.63 3.91 7.63 3.92 7.62 3.94 7.62 3.94 7.5 4.01 7.5 4.01 7.5 4.01 7.47 4.02 7.42 4.04 7.37 4.06 7.33 4.08 7.32 4.1 7.3 4.12 7.3 4.15 7.3 4.18 7.3 4.22 7.29 4.25 7.29 4.26 7.29 4.28 7.27 4.29 7.24 4.28 7.22 4.3 7.18 4.32 7.11 4.34 7.04 4.36 7 4.38 6.98 4.41 7 4.45 7 4.48 6.97 4.52 6.91 4.56 6.87 4.56 6.83 4.5 6.81 4.51 6.79 4.54 6.78 4.57 6.77 4.61 6.75 4.63 6.73 4.64 6.76 4.69 6.75 4.73 6.71 4.75 6.72 4.75 6.73 4.76 6.74 4.77 6.76 4.77 6.78 4.79 6.79 4.8 6.81 4.81 6.82 4.82 6.83 4.82 6.81 4.86 6.79 4.88 6.75 4.88 6.78 4.95 6.75 5.03 6.65 5.11 6.64 5.13 6.61 5.15 6.57 5.17 6.53 5.19 6.5 5.2 6.47 5.21 6.44 5.22 6.42 5.23 6.41 5.23 6.37 5.27 6.33 5.32 6.31 5.36 6.29 5.4 6.29 5.44 6.3 5.48 6.32 5.52 6.36 5.55 6.43 5.56 6.43 5.56 6.43 5.62 6.43 5.62 6.43 5.66 6.43 5.7 6.43 5.74 6.43 5.74 6.44 5.79 6.44 5.79 6.44 5.82 6.45 5.85 6.45 5.87 6.45 5.9 6.45 5.93 6.45 5.97 6.45 6.01 6.44 6.03 6.42 6.03 6.4 6.04 6.38 6.03 6.35 6.02 6.31 6 6.27 5.9 6.22 5.72 6.21 5.68 6.18 5.62 6.14 5.56 6.12 5.58 6.1 5.6 6.08 5.61 6.07 5.61 6.05 5.61 6.05 5.61 6.04 5.6 6.03 5.59 6.01 5.58 5.99 5.56 5.98 5.55 5.96 5.54 5.94 5.53 5.9 5.52 5.85 5.51 5.79 5.5 5.76 5.49 5.74 5.48 5.64 5.56 5.57 5.54 5.55 5.42 5.54 5.44 5.54 5.47 5.55 5.51 5.56 5.54 5.57 5.56 5.57 5.57 5.54 5.63 5.49 5.63 5.42 5.58 5.39 5.56 5.33 5.55 5.24 5.57 5.14 5.59 5.08 5.6 5.05 5.58 5.05 5.58 5.06 5.59 5.07 5.6 5.09 5.61 5.1 5.62 5.1 5.62 5.1 5.64 5.09 5.65 5.08 5.66 5.07 5.67 5.06 5.68 5.05 5.67 5.04 5.67 5.03 5.67 5.02 5.67 5.01 5.68 5 5.68 4.99 5.68 4.98 5.7 4.95 5.72 4.93 5.75 4.9 5.79 4.88 5.81 4.87 5.82 4.89 5.89 4.9 5.94 4.9 5.98 4.9 6.02 4.89 6.07 4.88 6.15 4.87 6.22 4.87 6.28 4.87 6.33 4.87 6.4 4.89 6.48 4.93 6.57 4.97 6.67 5.02 6.73 5.08 6.77 5.11 6.79 5.16 6.8 5.24 6.8 5.32 6.81 5.37 6.8 5.4 6.79 5.43 6.77 5.45 6.76 5.46 6.74 5.48 6.72 5.49 6.7 5.5 6.66 5.5 6.63 5.51 6.61 5.52 6.59 5.55 6.51 5.6 6.46 5.69 6.46 5.74 6.46 5.78 6.46 5.81 6.48 5.83 6.49 5.84 6.51 5.84 6.54 5.83 6.57 5.82 6.59 5.81 6.62 5.8 6.65 5.78 6.68 5.76 6.72 5.74 6.76 5.73 6.78 5.72 6.8 5.71 6.84 5.71 6.89 5.7 6.95 5.69 7.02 5.69 7.06 5.68 7.07 5.69 7.07 5.73 7.08 5.78 7.08 5.78 7.07 5.79 7.05 5.79 7.03 5.8 7.01 5.8 7 5.8 7 5.83 7.03 5.86 7.05 5.91 7.06 5.96 7.06 6 7.04 6.02 7 6.03 7.02 6.05 7.05 6.1 7.1 6.14 7.16 6.17 7.2 6.17 7.24 6.18 7.25 6.19 7.28 6.2 7.32 6.21 7.36 6.22 7.39 6.21 7.41 6.21 7.42 6.19 7.43 6.14 7.43 6.13 7.43 6.12 7.44 6.11 7.45 6.11 7.46 6.11 7.48 6.11 7.5 6.12 7.52 6.12 7.54 6.13 7.56 6.13 7.58 6.14 7.59 6.15 7.61 6.17 7.63 6.17 7.65 6.17 7.65 6.25 7.8 6.36 7.84 6.5 7.77 6.5 7.9 6.47 7.97 6.41 7.99 6.37 8 6.33 7.97 6.29 7.92 6.24 7.87 6.23 7.82 6.24 7.79 6.23 7.81 6.22 7.83 6.19 7.85 6.17 7.82 6.13 7.79 6.07 7.75 6.01 7.71 5.97 7.67 5.95 7.64 5.94 7.63 5.93 7.61 5.91 7.59 5.9 7.56 5.88 7.53 5.85 7.49 5.83 7.45 5.81 7.42 5.8 7.39 5.79 7.36 5.79 7.34 5.8 7.34 5.71 7.37 5.59 7.35 5.43 7.26 5.4 7.25 5.35 7.2 5.29 7.12 5.23 7.05 5.16 7.01 5.09 7.02 5.07 7.03 5.04 7.03 5 7.05 4.97 7.06 4.93 7.06 4.91 7.06 4.88 7.06 4.84 7.05 4.8 7.04 4.76 7.02 4.72 7 4.65 6.96 4.59 6.92 4.55 6.9 4.53 6.89 4.52 6.88 4.49 6.86 4.44 6.84 4.4 6.82 4.36 6.8 4.34 6.79 4.31 6.77 4.28 6.75 4.25 6.72 4.22 6.7 4.21 6.67 4.2 6.63 4.19 6.61 4.18 6.55 4.16 6.47 4.15 6.39 4.13 6.33 4.11 6.3 4.08 6.25 4.04 6.21 4 6.17 3.95 6.12 3.9 6.1 3.86 6.1 3.9 6.1 3.9 6.07 3.86 6.01 3.83 5.95 3.79 5.9 3.77 5.88 3.76 5.87 3.73 5.84 3.69 5.79 3.64 5.74 3.6 5.7 3.57 5.66 3.54 5.63 3.52 5.59 3.49 5.54 3.47 5.49 3.47 5.45 3.48 5.42 3.48 5.42 3.48 5.41 3.47 5.4 3.45 5.39 3.44 5.38 3.42 5.37 3.4 5.37 3.38 5.36 3.36 5.35 3.34 5.34 3.33 5.34 3.32 5.34 3.33 5.36 3.34 5.39 3.35 5.44 3.36 5.49 3.37 5.52 3.39 5.54 3.39 5.56 3.43 5.62 3.5 5.74 3.62 5.92 3.67 6.06 3.66 6.15 3.63 6.16 3.62 6.16 3.61 6.14 3.6 6.12 3.59 6.1 3.59 6.06 3.58 6.03 3.58 6.01 3.57 6 3.56 5.97 3.53 5.94 3.47 5.91 3.41 5.88 3.38 5.85 3.37 5.82 3.37 5.82 3.38 5.81 3.38 5.81 3.39 5.81 3.39 5.8 3.4 5.8 3.4 5.76 3.38 5.71 3.33 5.65 3.28 5.59 3.26 5.54 3.27 5.52 3.23 5.49 3.2 5.44 3.17 5.36 3.14 5.28 3.12 5.23 3.1 5.21 3.09 5.18 3.06 5.16 3.04 5.14 3.01 5.12 2.98 5.09 2.94 5.07 2.9 5.05 2.87 5.03 2.86 5.02 2.85 5.02 2.83 5 2.8 4.96 2.66 4.78 2.61 4.68 2.67 4.67 2.61 4.68 2.56 4.64 2.53 4.54 2.49 4.44 2.48 4.36 2.49 4.31 2.49 4.31 2.48 4.3 2.48 4.3 2.48 4.29 2.48 4.23 2.48 4.15 2.48 4.06 2.49 3.98 2.5 3.91 2.51 3.84 2.53 3.8 2.56 3.8 2.53 3.81 2.51 3.78 2.49 3.72 2.48 3.66 2.48 3.62 2.49 3.59 2.49 3.58 2.51 3.59 2.55 3.62 2.58 3.65 2.6 3.67 2.61 3.68 2.67 3.65 2.69 3.61 2.68 3.56 2.67 3.54 2.62 3.5 2.54 3.42 2.34 3.29 2.25 3.23 2.24 3.24 2.27 3.19 2.26 3.15 2.22 3.11 2.18 3.14 2.15 3.14 2.14 3.13 2.14 3.12 2.13 3.09 2.13 3.06 2.12 3.02 2.11 3 2.09 3 2.07 2.99 2.04 2.98 2.01 2.94 2.41 2.31 2.94 1.81 3.59 1.46 3.61 1.45 3.66 1.45 3.73 1.45 3.77 1.46 3.8 1.47 3.83 1.48 3.87 1.5 3.9 1.53 3.93 1.56 3.97 1.59 3.99 1.61 4.01 1.62 4.02 1.6 4.01 1.56 3.98 1.5 3.98 1.48 4.03 1.45 4.12 1.42 4.23 1.41 4.29 1.41 4.32 1.43 4.3 1.39 4.25 1.33 4.19 1.26 4.19 1.26 4.16 1.3 4.16 1.3 4.12 1.27 4.03 1.28 3.87 1.34 3.87 1.35 3.84 1.36 3.81 1.38 3.77 1.4 3.74 1.41 3.72 1.42 3.69 1.43 3.67 1.43 3.64 1.43 3.85 1.31 4.06 1.22 4.27 1.16 4.28 1.16 4.31 1.18 4.34 1.21 4.37 1.24 4.39 1.26 4.41 1.28 4.4 1.27 4.39 1.27 4.38 1.29 4.37 1.34 4.37 1.39 4.38 1.42 4.41 1.46 4.44 1.47 4.47 1.48 4.51 1.48 4.56 1.48 4.61 1.47 4.66 1.46 4.7 1.46 4.72 1.46 4.72 1.46 4.79 1.46 4.79 1.46 4.93 1.48 4.98 1.46 4.95 1.42 4.97 1.44 4.98 1.48 5 1.53 5.02 1.59 5.04 1.63 5.06 1.65 5.08 1.63 5.09 1.6 5.07 1.56 5.06 1.51 5.06 1.48 5.07 1.46 5.08 1.46 5.09 1.45 5.11 1.44 5.14 1.43 5.16 1.42 5.19 1.41 5.22 1.4 5.24 1.39 5.25 1.38 5.27 1.37 5.26 1.33 5.19 1.29 5.18 1.29 5.17 1.28 5.14 1.27 5.11 1.26 5.08 1.25 5.06 1.24 5.04 1.23 5.01 1.22 4.99 1.21 4.97 1.19 4.95 1.17 4.96 1.15 4.96 1.13 4.97 1.11 4.99 1.08 5.02 1.05 5.06 1.04 5.12 1.05 5.18 1.05 5.23 1.06 5.26 1.08 5.38 1.15 5.4 1.21 5.31 1.26 5.36 1.27 5.41 1.29 5.48 1.32 5.54 1.35 5.56 1.38 5.55 1.42 5.58 1.35 5.62 1.32 5.66 1.32 5.68 1.32 5.7 1.35 5.72 1.41 5.74 1.46 5.75 1.49 5.76 1.5 5.79 1.55 5.83 1.56 5.86 1.53 5.9 1.5 5.94 1.47 5.97 1.41 6.01 1.36 6.03 1.34 6.04 1.34 5.99 1.33 5.99 1.31 6.02 1.29 6.09 1.25 6.15 1.24 6.21 1.26 6.22 1.27 6.24 1.29 6.26 1.32 6.3 1.4 6.29 1.43 6.24 1.43 6.28 1.47 6.3 1.51 6.29 1.56 6.28 1.62 6.25 1.64 6.19 1.64 6.16 1.64 6.13 1.63 6.09 1.6 6.05 1.58 6.01 1.57 5.99 1.57 5.97 1.57 5.94 1.58 5.9 1.6 5.88 1.63 5.86 1.66 5.83 1.72 5.8 1.77 5.77 1.81 5.75 1.83 5.68 1.9 5.57 1.92 5.41 1.91 5.43 1.91 5.43 1.92 5.41 1.95 5.4 1.97 5.37 2 5.35 2.04 5.32 2.07 5.31 2.09 5.3 2.09 5.26 2.14 5.23 2.19 5.22 2.25 5.22 2.26 5.22 2.29 5.21 2.34 5.21 2.39 5.2 2.43 5.19 2.46 5.24 2.44 5.28 2.47 5.31 2.54 5.34 2.6 5.34 2.63 5.31 2.64 5.46 2.61 5.59 2.62 5.7 2.66 5.86 2.72 5.95 2.78 5.98 2.84 6 2.8 6.07 2.79 6.17 2.83 6.21 2.85 6.25 2.92 6.28 3.03 6.3 3.1 6.33 3.16 6.37 3.21 6.41 3.25 6.46 3.27 6.51 3.25 6.51 3.25 6.53 3.23 6.53 3.23 6.54 3.22 6.56 3.22 6.57 3.21 6.58 3.2 6.59 3.19 6.61 3.18 6.62 3.17 6.63 3.16 6.63 3.15 6.63 3.14 6.63 3.13 6.62 3.12 6.59 3.1 6.57 3.06 6.55 3.01 6.53 2.97 6.54 2.93 6.56 2.89 6.57 2.87 6.61 2.85 6.67 2.81 6.73 2.77 6.76 2.74 6.77 2.7 6.79 2.65 6.77 2.6 6.71 2.56 6.64 2.52 6.61 2.49 6.61 2.46 6.61 2.43 6.63 2.41 6.66 2.37 6.69 2.34 6.7 2.31 6.69 2.29 6.69 2.27 6.69 2.25 6.67 2.2 6.65 2.16 6.65 2.13 6.64 2.11 6.64 2.09 6.65 2.07 6.67 2.04 6.71 2.02 6.78 2.02 6.89 2.04 7.01 2.06 7.09 2.08 7.12 2.11 7.14 2.12 7.17 2.13 7.21 2.15 7.25 2.16 7.29 2.18 7.33 2.2 7.36 2.22 7.38 2.24 7.38 2.26 7.38 2.26 7.35 2.26 7.35 2.26 7.38 2.29 7.4 2.32 7.41 2.35 7.41 2.39 7.4 2.42 7.36 2.43 7.38 2.43 7.42 2.44 7.46 2.46 7.54 2.48 7.54 2.51 7.47 2.53 7.48 2.52 7.5 2.52 7.53 2.52 7.55 2.51 7.57 2.5 7.58 2.5 7.59 2.49 7.6 2.48 7.62 2.47 7.63 2.46 7.64 2.45 7.65 2.45 7.65 2.45 7.67 2.45 7.68 2.44 7.69 2.44 7.71 2.45 7.72 2.46 7.72 2.46 7.73 2.44 7.75 2.42 7.76 2.4 7.78 2.38 7.8 2.35 7.82 2.33 7.83 2.32 7.85 2.32 7.86 2.32 7.87 2.33 7.88 2.34 7.89 2.35 7.9 2.36 7.91 2.37 7.92 2.39 7.92 2.4 7.93 2.42 7.94 2.43 7.94 2.45 7.95 2.46 7.96 2.48 7.98 2.5 8.01 2.53 8.04 2.55 8.06 2.57 8.07 2.6 8.08 2.61 8.09 2.64 8.1 2.7 8.11 2.75 8.13 2.79 8.15 2.81 8.18 2.83 8.21 2.84 8.25 2.86 8.26 2.86 8.28 2.86 8.31 2.85 8.35 2.84 8.37 2.84 8.39 2.84 8.41 2.85 8.42 2.87 8.42 2.9 8.45 2.87 8.46 2.85 8.46 2.84 8.47 2.9 8.48 2.95 8.51 2.98 8.53 3.02 8.57 3.04 8.62 3.03 8.62 3.03 8.61 3.18 8.61 3.18 8.6 3.2 8.56 3.22 8.51 3.23 8.46 3.24 8.42 3.25 8.41 3.26 8.39 3.26 8.36 3.29 8.31 3.34 8.26 3.39 8.24 3.42 8.25 3.43 8.17 3.34 8.06 3.32 7.91 3.35 7.74 3.38 7.62 3.41 7.56 3.43 7.49 3.47 7.44 3.5 7.41 3.53 7.41 3.54 7.4 3.55 7.39 3.58 7.38 3.61 7.36 3.63 7.35 3.65 7.34 3.68 7.33 3.69 7.32 3.69 7.35 3.68 7.38 3.66 7.41 3.62 7.45 3.59 7.47 3.56 7.48 3.56 7.59 3.48 7.69 3.46 7.77 3.48 7.77 3.48 7.77 3.48 7.77 3.48ZM 6.37 9.33C 6.37 9.29 6.38 9.24 6.42 9.18 6.46 9.12 6.47 9.08 6.47 9.04 6.4 9.03 6.37 8.97 6.39 8.87 6.4 8.8 6.47 8.71 6.59 8.6 6.67 8.53 6.7 8.42 6.67 8.28 6.65 8.22 6.64 8.14 6.63 8.03 6.62 7.92 6.62 7.84 6.61 7.79 6.61 7.81 6.63 7.82 6.67 7.83 6.71 7.84 6.74 7.85 6.75 7.87 6.76 7.86 6.77 7.83 6.78 7.8 6.79 7.76 6.81 7.74 6.82 7.72 6.83 7.71 6.85 7.69 6.88 7.67 6.91 7.65 6.93 7.64 6.94 7.63 6.94 7.63 6.96 7.61 7 7.59 7.03 7.56 7.05 7.54 7.07 7.53 7.09 7.52 7.12 7.51 7.15 7.5 7.19 7.49 7.21 7.5 7.22 7.53 7.25 7.56 7.24 7.6 7.21 7.65 7.18 7.71 7.18 7.75 7.21 7.77 7.21 7.76 7.22 7.73 7.22 7.68 7.23 7.64 7.24 7.61 7.26 7.58 7.29 7.56 7.32 7.54 7.34 7.54 7.36 7.53 7.39 7.54 7.41 7.55 7.43 7.56 7.45 7.57 7.48 7.59 7.5 7.61 7.53 7.63 7.55 7.63 7.62 7.65 7.7 7.7 7.79 7.78 7.79 7.77 7.79 7.77 7.79 7.76 7.8 7.76 7.81 7.75 7.82 7.74 7.83 7.74 7.84 7.73 7.86 7.72 7.87 7.72 7.88 7.71 7.89 7.71 7.89 7.71 7.91 7.7 7.91 7.7 7.94 7.7 7.97 7.7 7.98 7.69 7.99 7.69 8.01 7.69 8.04 7.71 8.06 7.72 8.08 7.73 8.09 7.74 8.1 7.74 8.11 7.75 8.13 7.77 8.16 7.79 8.17 7.8 8.18 7.81 8.19 7.82 8.22 7.84 8.25 7.86 8.29 7.88 8.32 7.9 8.34 7.91 8.36 7.93 8.38 7.95 8.39 7.97 8.41 8 8.41 8.03 8.41 8.06 8.44 8.06 8.49 8.08 8.57 8.11 8.58 8.12 8.61 8.13 8.65 8.14 8.7 8.14 8.72 8.15 8.74 8.17 8.09 8.85 7.31 9.27 6.39 9.43 6.38 9.39 6.37 9.35 6.37 9.33 6.37 9.33 6.37 9.33 6.37 9.33Z" fill="rgb(255,255,255)"/></svg>