<?xml version="1.0" encoding="utf-8"?>
<svg xmlns="http://www.w3.org/2000/svg"
	xmlns:xlink="http://www.w3.org/1999/xlink"
	width="8px" height="8px" viewBox="0 0 8 8">
<path fillRule="evenodd" d="M 3.04 2.9C 2.91 2.9 2.77 2.87 2.64 2.81 2.7 2.94 2.73 3.08 2.73 3.22 2.73 3.49 2.65 3.72 2.47 3.91 2.29 4.1 2.08 4.19 1.82 4.19 1.57 4.19 1.35 4.1 1.18 3.91 1 3.72 0.91 3.49 0.91 3.22 0.91 2.96 1 2.73 1.18 2.54 1.35 2.35 1.57 2.26 1.82 2.26 1.96 2.26 2.09 2.29 2.22 2.35 2.16 2.22 2.13 2.08 2.13 1.94 2.13 1.67 2.22 1.44 2.39 1.25 2.57 1.07 2.79 0.97 3.04 0.97 3.29 0.97 3.51 1.07 3.68 1.25 3.86 1.44 3.95 1.67 3.95 1.94 3.95 2.21 3.86 2.43 3.68 2.62 3.51 2.81 3.29 2.9 3.04 2.9 3.04 2.9 3.04 2.9 3.04 2.9ZM 7.86 5.27C 7.77 5.16 7.65 5.03 7.51 4.88 7.37 4.73 7.23 4.58 7.1 4.45 6.97 4.31 6.84 4.17 6.71 4.05 6.58 3.92 6.51 3.84 6.49 3.82 6.46 3.79 6.42 3.77 6.38 3.77 6.33 3.77 6.22 3.85 6.07 4.02 5.91 4.18 5.84 4.29 5.84 4.35 5.84 4.38 5.86 4.43 5.91 4.49 5.96 4.56 6.01 4.62 6.07 4.68 6.12 4.73 6.19 4.8 6.26 4.87 6.33 4.94 6.37 4.98 6.38 4.99 6.38 4.99 5.93 5.48 5.93 5.48 5.93 5.48 4.24 3.69 4.24 3.69 4.65 3.1 4.86 2.49 4.86 1.86 4.86 1.31 4.7 0.87 4.38 0.52 4.05 0.18 3.63 0.01 3.12 0.01 2.61 0.01 2.11 0.17 1.63 0.48 1.14 0.8 0.75 1.22 0.45 1.73 0.15 2.24-0 2.77-0 3.3-0 3.85 0.16 4.3 0.49 4.64 0.81 4.98 1.23 5.15 1.75 5.15 2.35 5.15 2.92 4.93 3.48 4.5 3.48 4.5 6.67 7.87 6.67 7.87 6.76 7.96 6.86 8.01 6.99 8.01 7.12 8.01 7.25 7.94 7.37 7.81 7.5 7.68 7.56 7.55 7.56 7.41 7.56 7.27 7.52 7.16 7.43 7.06 7.43 7.06 6.38 5.96 6.38 5.96 6.38 5.96 6.84 5.48 6.84 5.48 6.85 5.49 6.89 5.53 6.95 5.61 7.02 5.68 7.08 5.75 7.14 5.81 7.19 5.86 7.25 5.92 7.31 5.97 7.37 6.03 7.42 6.05 7.45 6.05 7.5 6.05 7.6 5.97 7.76 5.81 7.91 5.64 7.99 5.53 7.99 5.48 7.99 5.45 7.95 5.38 7.86 5.27Z" fill="rgb(255,255,255)"/></svg>