<?xml version="1.0" encoding="utf-8"?>
<svg xmlns="http://www.w3.org/2000/svg"
	xmlns:xlink="http://www.w3.org/1999/xlink"
	width="5px" height="12px" viewBox="0 0 5 12">
<path fillRule="evenodd" d="M 4.93 9.28C 4.93 9.28 2.62 11.94 2.62 11.94 2.57 11.99 2.52 12.01 2.46 12.01 2.4 12.01 2.35 11.99 2.31 11.94 2.31 11.94 0.02 9.28 0.02 9.28-0.04 9.2-0.05 9.12-0.01 9.03 0.02 8.94 0.09 8.9 0.18 8.9 0.18 8.9 1.64 8.9 1.64 8.9 1.64 8.9 1.64 0.23 1.64 0.23 1.64 0.16 1.66 0.11 1.7 0.07 1.74 0.03 1.79 0 1.85 0 1.85 0 3.11 0 3.11 0 3.17 0 3.22 0.03 3.26 0.07 3.29 0.11 3.31 0.16 3.31 0.23 3.31 0.23 3.31 8.9 3.31 8.9 3.31 8.9 4.78 8.9 4.78 8.9 4.86 8.9 4.93 8.94 4.97 9.03 5 9.12 4.99 9.2 4.93 9.28 4.93 9.28 4.93 9.28 4.93 9.28Z" fill="rgb(255,255,255)"/></svg>