<?xml version="1.0" encoding="utf-8"?>
<svg xmlns="http://www.w3.org/2000/svg"
	xmlns:xlink="http://www.w3.org/1999/xlink"
	width="7px" height="11px" viewBox="0 0 7 11">
<path fillRule="evenodd" d="M 3.49 10.59C 3.29 10.59 3.12 10.52 2.98 10.38 2.83 10.25 2.76 10.09 2.76 9.9 2.76 9.71 2.83 9.55 2.98 9.41 3.12 9.28 3.29 9.21 3.49 9.21 3.69 9.21 3.86 9.28 4 9.41 4.15 9.55 4.22 9.71 4.22 9.9 4.22 10.09 4.15 10.25 4 10.38 3.86 10.52 3.69 10.59 3.49 10.59ZM 6.02 8.72C 5.96 8.77 5.9 8.8 5.82 8.8 5.82 8.8 1.16 8.8 1.16 8.8 1.08 8.8 1.02 8.77 0.96 8.72 0.9 8.66 0.87 8.6 0.87 8.52 0.87 8.52 0.87 2.47 0.87 2.47 0.87 2.39 0.9 2.33 0.96 2.27 1.02 2.22 1.08 2.19 1.16 2.19 1.16 2.19 5.82 2.19 5.82 2.19 5.9 2.19 5.96 2.22 6.02 2.27 6.08 2.33 6.11 2.39 6.11 2.47 6.11 2.47 6.11 8.52 6.11 8.52 6.11 8.6 6.08 8.66 6.02 8.72ZM 4.22 1.36C 4.22 1.36 2.76 1.36 2.76 1.36 2.67 1.36 2.62 1.32 2.62 1.23 2.62 1.14 2.67 1.09 2.76 1.09 2.76 1.09 4.22 1.09 4.22 1.09 4.31 1.09 4.36 1.14 4.36 1.23 4.36 1.32 4.31 1.36 4.22 1.36 4.22 1.36 4.22 1.36 4.22 1.36ZM 6.64 0.32C 6.41 0.1 6.13-0.01 5.82-0.01 5.82-0.01 1.16-0.01 1.16-0.01 0.85-0.01 0.58 0.1 0.35 0.32 0.11 0.53-0 0.79-0 1.09-0 1.09-0 9.9-0 9.9-0 10.2 0.11 10.45 0.35 10.67 0.58 10.89 0.85 11 1.16 11 1.16 11 5.82 11 5.82 11 6.13 11 6.41 10.89 6.64 10.67 6.87 10.45 6.98 10.2 6.98 9.9 6.98 9.9 6.98 1.09 6.98 1.09 6.98 0.79 6.87 0.53 6.64 0.32Z" fill="rgb(255,255,255)"/></svg>