<?xml version="1.0" encoding="utf-8"?>
<svg xmlns="http://www.w3.org/2000/svg"
	xmlns:xlink="http://www.w3.org/1999/xlink"
	width="11px" height="11px" viewBox="0 0 11 11">
<path fillRule="evenodd" d="M 8.37 4.03C 8.37 4.07 8.37 4.13 8.37 4.21 8.37 4.58 8.32 4.96 8.21 5.34 8.1 5.72 7.93 6.08 7.71 6.42 7.48 6.77 7.21 7.07 6.9 7.34 6.59 7.61 6.21 7.82 5.78 7.98 5.34 8.13 4.87 8.21 4.37 8.21 3.59 8.21 2.87 8 2.21 7.58 2.32 7.6 2.43 7.6 2.55 7.6 3.2 7.6 3.78 7.4 4.3 7 3.99 7 3.72 6.9 3.48 6.72 3.24 6.54 3.08 6.31 2.98 6.02 3.1 6.04 3.19 6.05 3.25 6.05 3.34 6.05 3.46 6.03 3.59 6 3.26 5.94 2.99 5.77 2.76 5.51 2.54 5.25 2.43 4.95 2.43 4.62 2.43 4.62 2.43 4.6 2.43 4.6 2.67 4.72 2.89 4.77 3.1 4.78 2.69 4.51 2.49 4.12 2.49 3.61 2.49 3.36 2.55 3.12 2.68 2.9 3.04 3.33 3.46 3.68 3.97 3.93 4.47 4.19 5.01 4.34 5.59 4.37 5.57 4.29 5.56 4.18 5.56 4.05 5.56 3.66 5.69 3.33 5.97 3.05 6.24 2.78 6.57 2.64 6.96 2.64 7.37 2.64 7.71 2.79 7.99 3.08 8.29 3.03 8.59 2.91 8.88 2.74 8.77 3.09 8.56 3.35 8.26 3.53 8.55 3.49 8.82 3.41 9.07 3.3 8.88 3.58 8.65 3.83 8.37 4.03 8.37 4.03 8.37 4.03 8.37 4.03ZM 10.22 0.64C 9.84 0.26 9.39 0.07 8.86 0.07 8.86 0.07 2.43 0.07 2.43 0.07 1.9 0.07 1.44 0.26 1.07 0.64 0.69 1.01 0.5 1.47 0.5 2 0.5 2 0.5 8.43 0.5 8.43 0.5 8.96 0.69 9.41 1.07 9.79 1.44 10.17 1.9 10.36 2.43 10.36 2.43 10.36 8.86 10.36 8.86 10.36 9.39 10.36 9.84 10.17 10.22 9.79 10.6 9.41 10.79 8.96 10.79 8.43 10.79 8.43 10.79 2 10.79 2 10.79 1.47 10.6 1.01 10.22 0.64Z" fill="rgb(255,255,255)"/></svg>