<?xml version="1.0" encoding="utf-8"?>
<svg xmlns="http://www.w3.org/2000/svg"
	xmlns:xlink="http://www.w3.org/1999/xlink"
	width="12px" height="10px" viewBox="0 0 12 10">
<path fillRule="evenodd" d="M 8.37 5.58C 8.37 5.58 4.94 7.72 4.94 7.72 4.88 7.76 4.8 7.79 4.71 7.79 4.65 7.79 4.58 7.77 4.51 7.73 4.36 7.65 4.29 7.53 4.29 7.36 4.29 7.36 4.29 3.07 4.29 3.07 4.29 2.9 4.36 2.78 4.51 2.7 4.66 2.62 4.8 2.62 4.94 2.71 4.94 2.71 8.37 4.85 8.37 4.85 8.5 4.93 8.57 5.05 8.57 5.21 8.57 5.38 8.5 5.5 8.37 5.58 8.37 5.58 8.37 5.58 8.37 5.58ZM 11.94 3.3C 11.9 2.93 11.85 2.6 11.79 2.31 11.72 1.98 11.57 1.71 11.33 1.48 11.09 1.26 10.81 1.13 10.49 1.1 9.5 0.98 8 0.93 6 0.93 4 0.93 2.5 0.98 1.51 1.1 1.19 1.13 0.91 1.26 0.68 1.48 0.44 1.71 0.29 1.98 0.21 2.31 0.15 2.6 0.1 2.93 0.06 3.3 0.03 3.66 0.01 3.97 0.01 4.21 0 4.45-0 4.79-0 5.21-0 5.64 0 5.98 0.01 6.22 0.01 6.46 0.03 6.76 0.06 7.13 0.1 7.5 0.14 7.83 0.21 8.12 0.28 8.45 0.43 8.72 0.67 8.94 0.91 9.17 1.19 9.3 1.51 9.33 2.5 9.44 4 9.5 6 9.5 8 9.5 9.5 9.44 10.49 9.33 10.81 9.3 11.09 9.17 11.32 8.94 11.56 8.72 11.71 8.45 11.79 8.12 11.85 7.83 11.9 7.5 11.94 7.13 11.97 6.76 11.99 6.46 11.99 6.22 12 5.98 12 5.64 12 5.21 12 4.79 12 4.45 11.99 4.21 11.99 3.97 11.97 3.66 11.94 3.3Z" fill="rgb(255,255,255)"/></svg>